<mxfile host="app.diagrams.net" modified="2023-10-10T07:31:58.508Z" agent="Mozilla/5.0 (Macintosh; Intel Mac OS X 10_15_7) AppleWebKit/537.36 (KHTML, like Gecko) Chrome/117.0.0.0 Safari/537.36" etag="LFzOH9YuMhBHV5SV2k4l" version="21.1.8" type="github">
  <diagram name="Page-1" id="zuWe50VetO4KrwNJ5Epr">
    <mxGraphModel dx="2924" dy="2259" grid="1" gridSize="10" guides="1" tooltips="1" connect="1" arrows="1" fold="1" page="1" pageScale="1" pageWidth="850" pageHeight="1100" math="0" shadow="0">
      <root>
        <mxCell id="0" />
        <mxCell id="1" parent="0" />
        <mxCell id="HnBu6yCB8zv2rlMUmXSl-61" value="" style="rounded=1;whiteSpace=wrap;html=1;dashed=1;fillColor=#d5e8d4;strokeColor=#82b366;" vertex="1" parent="1">
          <mxGeometry x="410" y="-40" width="370" height="330" as="geometry" />
        </mxCell>
        <mxCell id="HnBu6yCB8zv2rlMUmXSl-35" value="" style="rounded=1;whiteSpace=wrap;html=1;dashed=1;fillColor=#dae8fc;strokeColor=#6c8ebf;" vertex="1" parent="1">
          <mxGeometry x="410" y="340" width="370" height="330" as="geometry" />
        </mxCell>
        <mxCell id="HnBu6yCB8zv2rlMUmXSl-20" value="" style="rounded=0;whiteSpace=wrap;html=1;" vertex="1" parent="1">
          <mxGeometry x="450" y="390" width="290" height="240" as="geometry" />
        </mxCell>
        <mxCell id="HnBu6yCB8zv2rlMUmXSl-4" value="EMQX Pod&lt;br&gt;10.224.0.133" style="rounded=0;whiteSpace=wrap;html=1;" vertex="1" parent="1">
          <mxGeometry x="500" y="430" width="180" height="50" as="geometry" />
        </mxCell>
        <mxCell id="HnBu6yCB8zv2rlMUmXSl-5" value="EMQX Pod&lt;br&gt;10.224.0.133" style="rounded=0;whiteSpace=wrap;html=1;" vertex="1" parent="1">
          <mxGeometry x="500" y="493" width="180" height="50" as="geometry" />
        </mxCell>
        <mxCell id="HnBu6yCB8zv2rlMUmXSl-7" value="EMQX Pod&lt;br&gt;10.224.0.133" style="rounded=0;whiteSpace=wrap;html=1;" vertex="1" parent="1">
          <mxGeometry x="500" y="560" width="180" height="50" as="geometry" />
        </mxCell>
        <mxCell id="HnBu6yCB8zv2rlMUmXSl-60" value="" style="edgeStyle=orthogonalEdgeStyle;rounded=0;orthogonalLoop=1;jettySize=auto;html=1;" edge="1" parent="1" source="HnBu6yCB8zv2rlMUmXSl-8" target="HnBu6yCB8zv2rlMUmXSl-47">
          <mxGeometry relative="1" as="geometry" />
        </mxCell>
        <mxCell id="HnBu6yCB8zv2rlMUmXSl-8" value="Endpoints&lt;br&gt;10.224.0.163:18083&lt;br&gt;10.224.0.198:18083&lt;br&gt;10.224.0.34:18083" style="rounded=0;whiteSpace=wrap;html=1;fillColor=#fff2cc;strokeColor=#d6b656;" vertex="1" parent="1">
          <mxGeometry x="201" y="100" width="159" height="60" as="geometry" />
        </mxCell>
        <mxCell id="HnBu6yCB8zv2rlMUmXSl-39" value="" style="edgeStyle=orthogonalEdgeStyle;rounded=0;orthogonalLoop=1;jettySize=auto;html=1;" edge="1" parent="1" source="HnBu6yCB8zv2rlMUmXSl-13" target="HnBu6yCB8zv2rlMUmXSl-20">
          <mxGeometry relative="1" as="geometry" />
        </mxCell>
        <mxCell id="HnBu6yCB8zv2rlMUmXSl-13" value="Endpoints&lt;br&gt;10.224.0.133:1883/8083&lt;br&gt;10.224.0.210:&amp;nbsp;1883/8083&lt;br&gt;10.224.0.72:1883/8083" style="rounded=0;whiteSpace=wrap;html=1;fillColor=#fff2cc;strokeColor=#d6b656;" vertex="1" parent="1">
          <mxGeometry x="200" y="480" width="159" height="60" as="geometry" />
        </mxCell>
        <mxCell id="HnBu6yCB8zv2rlMUmXSl-16" value="Replicasets" style="text;html=1;align=center;verticalAlign=middle;resizable=0;points=[];autosize=1;strokeColor=none;fillColor=none;" vertex="1" parent="1">
          <mxGeometry x="450" y="390" width="90" height="30" as="geometry" />
        </mxCell>
        <mxCell id="HnBu6yCB8zv2rlMUmXSl-33" value="" style="edgeStyle=orthogonalEdgeStyle;rounded=0;orthogonalLoop=1;jettySize=auto;html=1;" edge="1" parent="1" source="HnBu6yCB8zv2rlMUmXSl-19" target="HnBu6yCB8zv2rlMUmXSl-13">
          <mxGeometry relative="1" as="geometry" />
        </mxCell>
        <mxCell id="HnBu6yCB8zv2rlMUmXSl-19" value="Service&lt;br style=&quot;border-color: var(--border-color);&quot;&gt;&lt;span style=&quot;&quot;&gt;emqx-listeners&lt;/span&gt;" style="rounded=0;whiteSpace=wrap;html=1;fillColor=#ffe6cc;strokeColor=#d79b00;" vertex="1" parent="1">
          <mxGeometry x="-10" y="480" width="159" height="60" as="geometry" />
        </mxCell>
        <mxCell id="HnBu6yCB8zv2rlMUmXSl-27" value="&lt;span style=&quot;background-color: rgb(255, 128, 0);&quot;&gt;replicant label&lt;/span&gt;" style="text;html=1;align=center;verticalAlign=middle;resizable=0;points=[];autosize=1;strokeColor=none;fillColor=none;" vertex="1" parent="1">
          <mxGeometry x="640" y="438" width="100" height="30" as="geometry" />
        </mxCell>
        <mxCell id="HnBu6yCB8zv2rlMUmXSl-28" value="&lt;span style=&quot;background-color: rgb(255, 128, 0);&quot;&gt;replicant label&lt;/span&gt;" style="text;html=1;align=center;verticalAlign=middle;resizable=0;points=[];autosize=1;strokeColor=none;fillColor=none;" vertex="1" parent="1">
          <mxGeometry x="640" y="510" width="100" height="30" as="geometry" />
        </mxCell>
        <mxCell id="HnBu6yCB8zv2rlMUmXSl-29" value="&lt;span style=&quot;background-color: rgb(255, 128, 0);&quot;&gt;replicant label&lt;/span&gt;" style="text;html=1;align=center;verticalAlign=middle;resizable=0;points=[];autosize=1;strokeColor=none;fillColor=none;" vertex="1" parent="1">
          <mxGeometry x="640" y="570" width="100" height="30" as="geometry" />
        </mxCell>
        <mxCell id="HnBu6yCB8zv2rlMUmXSl-32" value="" style="edgeStyle=orthogonalEdgeStyle;rounded=0;orthogonalLoop=1;jettySize=auto;html=1;" edge="1" parent="1" source="HnBu6yCB8zv2rlMUmXSl-30" target="HnBu6yCB8zv2rlMUmXSl-31">
          <mxGeometry relative="1" as="geometry" />
        </mxCell>
        <mxCell id="HnBu6yCB8zv2rlMUmXSl-30" value="Selector" style="text;html=1;align=center;verticalAlign=middle;resizable=0;points=[];autosize=1;strokeColor=none;fillColor=none;" vertex="1" parent="1">
          <mxGeometry x="34.5" y="380" width="70" height="30" as="geometry" />
        </mxCell>
        <mxCell id="HnBu6yCB8zv2rlMUmXSl-31" value="&lt;span style=&quot;background-color: rgb(255, 128, 0);&quot;&gt;replicant label&lt;/span&gt;" style="text;html=1;align=center;verticalAlign=middle;resizable=0;points=[];autosize=1;strokeColor=none;fillColor=none;" vertex="1" parent="1">
          <mxGeometry x="19.5" y="463" width="100" height="30" as="geometry" />
        </mxCell>
        <mxCell id="HnBu6yCB8zv2rlMUmXSl-41" value="Replicant" style="text;html=1;align=center;verticalAlign=middle;resizable=0;points=[];autosize=1;strokeColor=none;fillColor=none;" vertex="1" parent="1">
          <mxGeometry x="430" y="350" width="70" height="30" as="geometry" />
        </mxCell>
        <mxCell id="HnBu6yCB8zv2rlMUmXSl-56" value="" style="edgeStyle=orthogonalEdgeStyle;rounded=0;orthogonalLoop=1;jettySize=auto;html=1;" edge="1" parent="1" source="HnBu6yCB8zv2rlMUmXSl-42" target="HnBu6yCB8zv2rlMUmXSl-8">
          <mxGeometry relative="1" as="geometry" />
        </mxCell>
        <mxCell id="HnBu6yCB8zv2rlMUmXSl-42" value="Service&lt;br style=&quot;border-color: var(--border-color);&quot;&gt;&lt;span style=&quot;&quot;&gt;emqx-dashboard&lt;/span&gt;" style="rounded=0;whiteSpace=wrap;html=1;fillColor=#ffe6cc;strokeColor=#d79b00;" vertex="1" parent="1">
          <mxGeometry x="-5" y="100" width="159" height="60" as="geometry" />
        </mxCell>
        <mxCell id="HnBu6yCB8zv2rlMUmXSl-45" value="" style="edgeStyle=orthogonalEdgeStyle;rounded=0;orthogonalLoop=1;jettySize=auto;html=1;" edge="1" parent="1" target="HnBu6yCB8zv2rlMUmXSl-44">
          <mxGeometry relative="1" as="geometry">
            <mxPoint x="74.5" y="30" as="sourcePoint" />
          </mxGeometry>
        </mxCell>
        <mxCell id="HnBu6yCB8zv2rlMUmXSl-43" value="Selector" style="text;html=1;align=center;verticalAlign=middle;resizable=0;points=[];autosize=1;strokeColor=none;fillColor=none;" vertex="1" parent="1">
          <mxGeometry x="44.5" y="-5" width="70" height="30" as="geometry" />
        </mxCell>
        <mxCell id="HnBu6yCB8zv2rlMUmXSl-44" value="&lt;span style=&quot;background-color: rgb(255, 128, 0);&quot;&gt;core label&lt;/span&gt;" style="text;html=1;align=center;verticalAlign=middle;resizable=0;points=[];autosize=1;strokeColor=none;fillColor=none;" vertex="1" parent="1">
          <mxGeometry x="34.5" y="83" width="80" height="30" as="geometry" />
        </mxCell>
        <mxCell id="HnBu6yCB8zv2rlMUmXSl-47" value="" style="rounded=0;whiteSpace=wrap;html=1;" vertex="1" parent="1">
          <mxGeometry x="455" y="10" width="290" height="240" as="geometry" />
        </mxCell>
        <mxCell id="HnBu6yCB8zv2rlMUmXSl-48" value="EMQX Pod&lt;br&gt;10.224.0.163" style="rounded=0;whiteSpace=wrap;html=1;" vertex="1" parent="1">
          <mxGeometry x="505" y="50" width="180" height="50" as="geometry" />
        </mxCell>
        <mxCell id="HnBu6yCB8zv2rlMUmXSl-49" value="EMQX Pod&lt;br&gt;10.224.0.198" style="rounded=0;whiteSpace=wrap;html=1;" vertex="1" parent="1">
          <mxGeometry x="505" y="113" width="180" height="50" as="geometry" />
        </mxCell>
        <mxCell id="HnBu6yCB8zv2rlMUmXSl-50" value="EMQX Pod&lt;br&gt;10.224.0.34" style="rounded=0;whiteSpace=wrap;html=1;" vertex="1" parent="1">
          <mxGeometry x="505" y="180" width="180" height="50" as="geometry" />
        </mxCell>
        <mxCell id="HnBu6yCB8zv2rlMUmXSl-51" value="Replicasets" style="text;html=1;align=center;verticalAlign=middle;resizable=0;points=[];autosize=1;strokeColor=none;fillColor=none;" vertex="1" parent="1">
          <mxGeometry x="455" y="10" width="90" height="30" as="geometry" />
        </mxCell>
        <mxCell id="HnBu6yCB8zv2rlMUmXSl-52" value="&lt;span style=&quot;background-color: rgb(255, 128, 0);&quot;&gt;core label&lt;/span&gt;" style="text;html=1;align=center;verticalAlign=middle;resizable=0;points=[];autosize=1;strokeColor=none;fillColor=none;" vertex="1" parent="1">
          <mxGeometry x="655" y="58" width="80" height="30" as="geometry" />
        </mxCell>
        <mxCell id="HnBu6yCB8zv2rlMUmXSl-53" value="&lt;span style=&quot;background-color: rgb(255, 128, 0);&quot;&gt;core label&lt;/span&gt;" style="text;html=1;align=center;verticalAlign=middle;resizable=0;points=[];autosize=1;strokeColor=none;fillColor=none;" vertex="1" parent="1">
          <mxGeometry x="655" y="130" width="80" height="30" as="geometry" />
        </mxCell>
        <mxCell id="HnBu6yCB8zv2rlMUmXSl-54" value="&lt;span style=&quot;background-color: rgb(255, 128, 0);&quot;&gt;core label&lt;/span&gt;" style="text;html=1;align=center;verticalAlign=middle;resizable=0;points=[];autosize=1;strokeColor=none;fillColor=none;" vertex="1" parent="1">
          <mxGeometry x="655" y="190" width="80" height="30" as="geometry" />
        </mxCell>
        <mxCell id="HnBu6yCB8zv2rlMUmXSl-55" value="Core" style="text;html=1;align=center;verticalAlign=middle;resizable=0;points=[];autosize=1;strokeColor=none;fillColor=none;" vertex="1" parent="1">
          <mxGeometry x="445" y="-30" width="50" height="30" as="geometry" />
        </mxCell>
      </root>
    </mxGraphModel>
  </diagram>
</mxfile>
